<?xml version="1.0" standalone="no"?>
<!DOCTYPE svg PUBLIC "-//W3C//DTD SVG 20010904//EN"
 "http://www.w3.org/TR/2001/REC-SVG-20010904/DTD/svg10.dtd">
<svg version="1.0" xmlns="http://www.w3.org/2000/svg"
 width="720.000000pt" height="720.000000pt" viewBox="0 0 720.000000 720.000000"
 preserveAspectRatio="xMidYMid meet">
<metadata>
Created by potrace 1.14, written by Peter Selinger 2001-2017
</metadata>
<g transform="translate(0.000000,720.000000) scale(0.100000,-0.100000)"
fill="#000000" stroke="none">
<path d="M1258 7195 c-2 -3 -22 -7 -44 -10 -21 -3 -49 -7 -61 -10 -13 -3 -32
-7 -43 -10 -86 -18 -259 -94 -327 -143 -17 -12 -36 -22 -41 -22 -6 0 -12 -4
-14 -8 -1 -4 -21 -21 -43 -37 -61 -46 -83 -65 -143 -128 -165 -171 -266 -369
-328 -642 -4 -16 -8 -178 -11 -360 l-3 -330 132 -107 c163 -131 178 -143 299
-243 53 -44 116 -96 140 -115 24 -19 60 -50 82 -67 21 -18 43 -33 49 -33 5 0
6 -4 3 -10 -3 -5 -1 -10 4 -10 10 0 20 -7 74 -53 12 -11 39 -33 61 -50 280
-230 390 -321 396 -327 3 -3 20 -16 38 -29 29 -20 43 -43 25 -40 -5 1 -10 1
-13 -1 -3 -1 -16 -3 -30 -6 -14 -2 -36 -8 -50 -13 -30 -11 -52 -18 -62 -20
-19 -3 -124 -45 -134 -52 -6 -5 -13 -7 -16 -4 -3 3 -11 -1 -18 -10 -7 -8 -18
-15 -24 -15 -16 0 -97 -42 -120 -62 -10 -10 -23 -15 -28 -12 -4 3 -8 0 -8 -5
0 -6 -7 -11 -15 -11 -8 0 -15 -4 -15 -10 0 -5 -6 -10 -14 -10 -8 0 -16 -3 -18
-8 -1 -4 -35 -30 -73 -58 -82 -59 -211 -183 -280 -269 -26 -33 -51 -62 -54
-65 -3 -3 -10 -12 -16 -21 -5 -9 -23 -35 -38 -58 -74 -112 -191 -357 -201
-424 -1 -6 -4 -16 -8 -22 -7 -12 -34 -134 -43 -190 -3 -23 -8 -52 -11 -65 -3
-14 -7 -75 -10 -136 l-5 -111 328 -164 c180 -90 329 -167 331 -171 2 -5 9 -8
15 -8 11 0 1417 -698 1417 -703 0 -2 -231 -4 -512 -5 -282 -1 -524 -4 -538 -6
-14 -2 -42 -4 -63 -5 -28 -1 -36 -4 -31 -13 6 -10 5 -10 -7 -1 -12 10 -21 9
-42 -2 -15 -8 -25 -10 -22 -5 4 6 1 10 -4 10 -6 0 -11 -4 -11 -9 0 -4 -11 -7
-25 -6 -14 2 -25 0 -25 -5 0 -4 -19 -10 -42 -14 -23 -4 -48 -12 -56 -18 -8 -7
-23 -13 -33 -15 -11 -2 -52 -21 -92 -44 -39 -22 -80 -43 -89 -46 -10 -3 -18
-11 -18 -19 0 -8 -6 -11 -15 -7 -9 3 -15 2 -13 -3 2 -5 -1 -10 -5 -11 -4 -1
-15 -9 -23 -17 -8 -9 -24 -22 -36 -30 -23 -16 -16 -38 10 -29 18 7 17 5 -12
-17 -11 -8 -17 -10 -13 -3 4 6 2 15 -4 19 -15 9 -122 -104 -115 -121 3 -8 0
-12 -7 -9 -12 4 -57 -53 -57 -74 0 -7 -4 -12 -10 -12 -10 0 -45 -60 -42 -72 1
-5 -3 -8 -9 -8 -5 0 -7 -4 -4 -10 3 -5 1 -10 -5 -10 -7 0 -10 -6 -8 -12 3 -7
-1 -19 -8 -26 -13 -13 -9 -42 7 -42 4 0 -2 -24 -15 -52 -13 -29 -33 -84 -44
-123 -43 -142 -49 -212 -51 -530 l-2 -305 2830 0 c1747 0 2832 4 2836 10 3 5
11 7 18 5 18 -7 193 38 267 70 110 46 221 113 304 185 43 37 156 154 156 162
0 4 6 13 13 20 16 17 62 81 62 88 0 3 10 21 23 41 49 80 113 267 128 378 11
78 11 736 0 746 -6 6 -69 44 -141 84 -71 41 -158 91 -192 112 -34 22 -64 39
-67 39 -2 0 -39 20 -80 45 -42 25 -81 45 -85 45 -5 0 -11 3 -13 8 -1 4 -46 32
-98 61 -106 60 -127 72 -220 126 -36 21 -105 61 -153 89 -49 28 -96 56 -105
61 -9 6 -39 23 -67 38 -27 15 -57 32 -65 37 -8 5 -62 37 -120 70 -58 33 -112
65 -120 70 -8 6 -22 13 -30 17 -8 4 -74 42 -148 85 -73 43 -137 78 -142 78 -6
0 -10 5 -10 10 0 6 -4 10 -8 10 -5 0 -85 44 -179 98 l-171 98 77 52 c106 73
143 104 247 207 168 166 280 334 370 550 39 94 94 283 94 323 0 12 7 25 15 28
8 4 12 10 9 15 -3 5 0 9 7 9 8 0 8 4 -1 15 -9 10 -9 15 -1 15 13 0 10 22 -4
32 -6 5 -6 8 1 8 6 0 11 18 11 40 0 22 -5 40 -11 40 -8 0 -8 3 0 8 7 4 11 30
10 62 l-1 55 -105 71 c-58 40 -110 76 -116 81 -5 4 -18 13 -27 18 -29 18 -322
218 -327 224 -3 3 -13 11 -22 16 -10 6 -43 28 -75 50 -109 76 -320 220 -335
230 -9 6 -43 29 -76 53 -34 23 -66 42 -71 42 -6 0 -11 4 -11 8 0 5 -35 32 -77
60 -124 82 -198 135 -201 144 -2 4 -10 8 -17 8 -8 0 -20 6 -27 13 -7 7 -22 18
-32 24 -14 8 241 11 925 11 870 1 987 3 1059 17 14 3 39 7 55 9 119 16 370
137 460 224 8 6 16 12 19 12 19 0 226 232 226 253 0 3 16 31 35 63 58 96 98
211 133 387 1 4 2 21 2 38 0 20 4 28 12 23 7 -5 8 -3 3 6 -10 16 -10 534 0
549 3 6 3 11 -2 11 -4 0 -7 25 -6 55 l2 55 -2793 0 c-1536 0 -2795 -2 -2798
-5z m-324 -5573 c3 -5 -1 -9 -9 -9 -8 0 -12 4 -9 9 3 4 7 8 9 8 2 0 6 -4 9 -8z
m-74 -35 c0 -2 -9 -12 -20 -22 -24 -21 -27 -14 -4 9 15 15 24 20 24 13z m-55
-26 c3 -5 2 -12 -3 -15 -5 -3 -9 1 -9 9 0 17 3 19 12 6z m-31 -19 c2 -4 -5 -9
-17 -9 -17 -2 -19 0 -7 7 18 12 18 12 24 2z m-64 -56 c0 -2 -7 -7 -16 -10 -8
-3 -12 -2 -9 4 6 10 25 14 25 6z m-71 -59 c0 -9 -2 -8 -6 1 -2 6 -10 9 -15 6
-7 -4 -8 -2 -4 5 9 13 26 5 25 -12z m-76 -52 c4 -8 3 -16 -1 -19 -4 -3 -9 4
-9 15 -2 23 3 25 10 4z m-155 -205 c-7 -10 -14 -17 -17 -15 -4 4 18 35 25 35
2 0 -1 -9 -8 -20z m-38 -35 c-7 -8 -17 -15 -23 -15 -6 0 -2 7 9 15 25 19 30
19 14 0z m-15 -55 c-3 -5 -12 -10 -18 -10 -7 0 -6 4 3 10 19 12 23 12 15 0z
m-25 -40 c0 -5 -5 -10 -11 -10 -5 0 -7 5 -4 10 3 6 8 10 11 10 2 0 4 -4 4 -10z"/>
</g>
</svg>
