<?xml version="1.0" standalone="no"?>
<!DOCTYPE svg PUBLIC "-//W3C//DTD SVG 20010904//EN"
 "http://www.w3.org/TR/2001/REC-SVG-20010904/DTD/svg10.dtd">
<svg version="1.0" xmlns="http://www.w3.org/2000/svg"
 width="700.000000pt" height="700.000000pt" viewBox="0 0 700.000000 700.000000"
 preserveAspectRatio="xMidYMid meet">
<metadata>
Created by potrace 1.14, written by Peter Selinger 2001-2017
</metadata>
<g transform="translate(0.000000,700.000000) scale(0.100000,-0.100000)"
fill="#000000" stroke="none">
<path d="M1625 6285 c-326 -57 -613 -312 -719 -639 -39 -119 -38 -112 -43
-402 l-5 -272 84 -68 c127 -104 404 -331 478 -393 101 -84 262 -217 338 -279
22 -18 58 -48 79 -67 32 -29 35 -35 18 -36 -11 -1 -25 -3 -32 -3 -6 -1 -15 -5
-19 -9 -4 -4 -18 -7 -30 -7 -13 0 -26 -4 -29 -10 -3 -5 -13 -10 -22 -10 -8 0
-53 -18 -100 -40 -47 -22 -90 -37 -96 -33 -5 3 -7 1 -3 -5 3 -6 -7 -16 -24
-24 -16 -7 -30 -16 -30 -20 0 -5 -5 -8 -11 -8 -6 0 -30 -15 -53 -32 -22 -18
-47 -37 -55 -43 -48 -34 -214 -212 -257 -275 -89 -130 -161 -287 -198 -435
-23 -94 -29 -143 -30 -244 l-1 -94 730 -367 c402 -202 765 -385 808 -406 l78
-40 -383 0 c-211 -1 -414 -2 -453 -4 -145 -6 -328 -76 -451 -171 -100 -77
-206 -209 -257 -322 -15 -32 -15 -37 -1 -37 11 0 12 -5 6 -18 -12 -23 -52
-135 -58 -164 -19 -86 -22 -150 -21 -363 l2 -240 2190 1 2190 0 97 27 c171 46
297 123 417 254 81 88 138 180 176 284 44 122 54 211 55 494 l0 260 -317 185
c-175 101 -491 285 -703 409 -212 123 -403 234 -425 246 -22 13 -85 49 -140
82 -55 32 -109 62 -119 66 -16 6 -5 17 60 62 84 57 219 183 269 250 17 22 33
42 37 45 12 9 86 134 119 200 38 77 82 202 99 285 7 33 19 65 25 70 8 7 13 47
14 117 2 93 0 109 -16 122 -10 9 -126 90 -258 180 -132 91 -261 180 -286 198
-26 18 -99 69 -163 113 -64 44 -195 134 -291 201 l-174 121 742 0 c408 1 759
3 779 7 372 61 648 319 728 681 15 69 18 134 19 357 l2 274 -2148 0 c-1651 1
-2164 -2 -2218 -11z"/>
<path d="M6016 6218 c3 -4 11 -5 19 -1 21 7 19 12 -4 10 -11 0 -18 -5 -15 -9z"/>
</g>
</svg>
