<svg width="800" height="107" viewBox="0 0 800 107" fill="none" xmlns="http://www.w3.org/2000/svg">
<rect x="421.631" width="378.368" height="96.3316" rx="14" fill="#F3F3F3"/>
<path d="M595.052 43.4309H596.552C596.474 44.1497 596.268 44.7929 595.935 45.3606C595.601 45.9283 595.13 46.3788 594.521 46.7122C593.911 47.0403 593.151 47.2043 592.239 47.2043C591.573 47.2043 590.966 47.0793 590.419 46.8293C589.877 46.5793 589.411 46.2252 589.021 45.7668C588.63 45.3033 588.328 44.7486 588.114 44.1028C587.906 43.4517 587.802 42.7278 587.802 41.9309V40.7981C587.802 40.0012 587.906 39.2799 588.114 38.634C588.328 37.983 588.632 37.4257 589.028 36.9622C589.429 36.4986 589.911 36.1418 590.474 35.8918C591.036 35.6418 591.669 35.5168 592.372 35.5168C593.231 35.5168 593.958 35.6783 594.552 36.0012C595.146 36.3241 595.606 36.7721 595.935 37.345C596.268 37.9127 596.474 38.5715 596.552 39.3215H595.052C594.979 38.7903 594.843 38.3346 594.646 37.9543C594.448 37.5689 594.166 37.2721 593.802 37.0637C593.437 36.8554 592.961 36.7512 592.372 36.7512C591.867 36.7512 591.422 36.8476 591.036 37.0403C590.656 37.233 590.336 37.5064 590.075 37.8606C589.82 38.2148 589.627 38.6392 589.497 39.134C589.367 39.6288 589.302 40.1783 589.302 40.7825V41.9309C589.302 42.4882 589.359 43.0116 589.474 43.5012C589.593 43.9908 589.773 44.4205 590.013 44.7903C590.252 45.1601 590.557 45.4517 590.927 45.6653C591.297 45.8736 591.734 45.9778 592.239 45.9778C592.88 45.9778 593.39 45.8762 593.771 45.6731C594.151 45.47 594.437 45.1783 594.63 44.7981C594.828 44.4179 594.968 43.9622 595.052 43.4309ZM598.005 42.9153V42.7356C598.005 42.1262 598.093 41.5611 598.271 41.0403C598.448 40.5142 598.703 40.0585 599.036 39.6731C599.369 39.2825 599.773 38.9804 600.247 38.7668C600.721 38.5481 601.252 38.4387 601.841 38.4387C602.435 38.4387 602.968 38.5481 603.442 38.7668C603.922 38.9804 604.328 39.2825 604.661 39.6731C605 40.0585 605.257 40.5142 605.435 41.0403C605.612 41.5611 605.7 42.1262 605.7 42.7356V42.9153C605.7 43.5247 605.612 44.0898 605.435 44.6106C605.257 45.1314 605 45.5872 604.661 45.9778C604.328 46.3632 603.924 46.6653 603.45 46.884C602.981 47.0976 602.45 47.2043 601.856 47.2043C601.263 47.2043 600.729 47.0976 600.255 46.884C599.781 46.6653 599.375 46.3632 599.036 45.9778C598.703 45.5872 598.448 45.1314 598.271 44.6106C598.093 44.0898 598.005 43.5247 598.005 42.9153ZM599.45 42.7356V42.9153C599.45 43.3372 599.5 43.7356 599.599 44.1106C599.698 44.4804 599.846 44.8085 600.044 45.095C600.247 45.3814 600.5 45.608 600.802 45.7747C601.104 45.9361 601.455 46.0168 601.856 46.0168C602.252 46.0168 602.599 45.9361 602.896 45.7747C603.198 45.608 603.448 45.3814 603.646 45.095C603.843 44.8085 603.992 44.4804 604.091 44.1106C604.195 43.7356 604.247 43.3372 604.247 42.9153V42.7356C604.247 42.3189 604.195 41.9257 604.091 41.5559C603.992 41.1809 603.841 40.8502 603.638 40.5637C603.44 40.2721 603.19 40.0429 602.888 39.8762C602.591 39.7096 602.242 39.6262 601.841 39.6262C601.445 39.6262 601.096 39.7096 600.794 39.8762C600.497 40.0429 600.247 40.2721 600.044 40.5637C599.846 40.8502 599.698 41.1809 599.599 41.5559C599.5 41.9257 599.45 42.3189 599.45 42.7356ZM612.685 45.095V38.595H614.138V47.0481H612.755L612.685 45.095ZM612.958 43.3137L613.56 43.2981C613.56 43.8606 613.5 44.3814 613.38 44.8606C613.265 45.3346 613.078 45.746 612.817 46.095C612.557 46.4439 612.216 46.7174 611.794 46.9153C611.372 47.108 610.859 47.2043 610.255 47.2043C609.843 47.2043 609.466 47.1444 609.122 47.0247C608.784 46.9049 608.492 46.72 608.247 46.47C608.002 46.22 607.812 45.8944 607.677 45.4934C607.547 45.0924 607.481 44.6106 607.481 44.0481V38.595H608.927V44.0637C608.927 44.4439 608.968 44.759 609.052 45.009C609.14 45.2538 609.257 45.4491 609.403 45.595C609.554 45.7356 609.721 45.8346 609.903 45.8918C610.091 45.9491 610.284 45.9778 610.481 45.9778C611.096 45.9778 611.583 45.8606 611.942 45.6262C612.302 45.3866 612.56 45.0663 612.716 44.6653C612.877 44.259 612.958 43.8085 612.958 43.3137ZM617.786 39.9231V47.0481H616.341V38.595H617.747L617.786 39.9231ZM620.427 38.5481L620.419 39.8918C620.299 39.8658 620.185 39.8502 620.075 39.845C619.971 39.8346 619.851 39.8293 619.716 39.8293C619.382 39.8293 619.088 39.8814 618.833 39.9856C618.578 40.0898 618.362 40.2356 618.185 40.4231C618.007 40.6106 617.867 40.8346 617.763 41.095C617.664 41.3502 617.599 41.6314 617.567 41.9387L617.161 42.1731C617.161 41.6627 617.211 41.1835 617.31 40.7356C617.414 40.2877 617.573 39.8918 617.786 39.5481C618 39.1991 618.271 38.9283 618.599 38.7356C618.932 38.5377 619.328 38.4387 619.786 38.4387C619.89 38.4387 620.01 38.4517 620.146 38.4778C620.281 38.4986 620.375 38.5221 620.427 38.5481ZM626.685 44.8059C626.685 44.5976 626.638 44.4049 626.544 44.2278C626.455 44.0455 626.271 43.8814 625.989 43.7356C625.713 43.5846 625.297 43.4543 624.739 43.345C624.271 43.246 623.846 43.1288 623.466 42.9934C623.091 42.858 622.771 42.6939 622.505 42.5012C622.244 42.3085 622.044 42.0819 621.903 41.8215C621.763 41.5611 621.692 41.2564 621.692 40.9075C621.692 40.5741 621.765 40.259 621.911 39.9622C622.062 39.6653 622.273 39.4023 622.544 39.1731C622.82 38.9439 623.151 38.7642 623.536 38.634C623.922 38.5038 624.351 38.4387 624.825 38.4387C625.502 38.4387 626.08 38.5585 626.56 38.7981C627.039 39.0377 627.406 39.358 627.661 39.759C627.916 40.1549 628.044 40.595 628.044 41.0793H626.599C626.599 40.845 626.528 40.6184 626.388 40.3997C626.252 40.1757 626.052 39.9908 625.786 39.845C625.526 39.6991 625.205 39.6262 624.825 39.6262C624.424 39.6262 624.099 39.6887 623.849 39.8137C623.604 39.9335 623.424 40.0872 623.31 40.2747C623.2 40.4622 623.146 40.6601 623.146 40.8684C623.146 41.0247 623.172 41.1653 623.224 41.2903C623.281 41.4101 623.38 41.5221 623.521 41.6262C623.661 41.7252 623.859 41.8189 624.114 41.9075C624.369 41.996 624.695 42.0846 625.091 42.1731C625.784 42.3293 626.354 42.5168 626.802 42.7356C627.25 42.9543 627.583 43.2226 627.802 43.5403C628.021 43.858 628.13 44.2434 628.13 44.6965C628.13 45.0663 628.052 45.4049 627.896 45.7122C627.744 46.0194 627.523 46.2851 627.231 46.509C626.945 46.7278 626.601 46.8997 626.2 47.0247C625.804 47.1444 625.359 47.2043 624.864 47.2043C624.119 47.2043 623.489 47.0715 622.974 46.8059C622.458 46.5403 622.067 46.1965 621.802 45.7747C621.536 45.3528 621.403 44.9075 621.403 44.4387H622.856C622.877 44.8346 622.992 45.1497 623.2 45.384C623.409 45.6132 623.664 45.7773 623.966 45.8762C624.268 45.97 624.567 46.0168 624.864 46.0168C625.26 46.0168 625.591 45.9648 625.856 45.8606C626.127 45.7564 626.333 45.6132 626.474 45.4309C626.614 45.2486 626.685 45.0403 626.685 44.8059ZM633.536 47.2043C632.948 47.2043 632.414 47.1054 631.935 46.9075C631.461 46.7043 631.052 46.4205 630.708 46.0559C630.369 45.6913 630.109 45.259 629.927 44.759C629.744 44.259 629.653 43.7122 629.653 43.1184V42.7903C629.653 42.1028 629.755 41.4908 629.958 40.9543C630.161 40.4127 630.437 39.9543 630.786 39.5793C631.135 39.2043 631.531 38.9205 631.974 38.7278C632.416 38.5351 632.875 38.4387 633.349 38.4387C633.953 38.4387 634.474 38.5429 634.911 38.7512C635.354 38.9596 635.716 39.2512 635.997 39.6262C636.278 39.996 636.487 40.4335 636.622 40.9387C636.757 41.4387 636.825 41.9856 636.825 42.5793V43.2278H630.513V42.0481H635.38V41.9387C635.359 41.5637 635.281 41.1991 635.146 40.845C635.015 40.4908 634.807 40.1991 634.521 39.97C634.234 39.7408 633.843 39.6262 633.349 39.6262C633.021 39.6262 632.718 39.6965 632.442 39.8372C632.166 39.9726 631.929 40.1757 631.731 40.4465C631.534 40.7174 631.38 41.0481 631.271 41.4387C631.161 41.8293 631.106 42.2799 631.106 42.7903V43.1184C631.106 43.5194 631.161 43.8971 631.271 44.2512C631.385 44.6002 631.549 44.9075 631.763 45.1731C631.981 45.4387 632.244 45.6471 632.552 45.7981C632.864 45.9491 633.218 46.0247 633.614 46.0247C634.125 46.0247 634.557 45.9205 634.911 45.7122C635.265 45.5038 635.575 45.2252 635.841 44.8762L636.716 45.5715C636.534 45.8476 636.302 46.1106 636.021 46.3606C635.739 46.6106 635.393 46.8137 634.981 46.97C634.575 47.1262 634.093 47.2043 633.536 47.2043ZM643.435 44.8059C643.435 44.5976 643.388 44.4049 643.294 44.2278C643.205 44.0455 643.021 43.8814 642.739 43.7356C642.463 43.5846 642.047 43.4543 641.489 43.345C641.021 43.246 640.596 43.1288 640.216 42.9934C639.841 42.858 639.521 42.6939 639.255 42.5012C638.994 42.3085 638.794 42.0819 638.653 41.8215C638.513 41.5611 638.442 41.2564 638.442 40.9075C638.442 40.5741 638.515 40.259 638.661 39.9622C638.812 39.6653 639.023 39.4023 639.294 39.1731C639.57 38.9439 639.901 38.7642 640.286 38.634C640.672 38.5038 641.101 38.4387 641.575 38.4387C642.252 38.4387 642.83 38.5585 643.31 38.7981C643.789 39.0377 644.156 39.358 644.411 39.759C644.666 40.1549 644.794 40.595 644.794 41.0793H643.349C643.349 40.845 643.278 40.6184 643.138 40.3997C643.002 40.1757 642.802 39.9908 642.536 39.845C642.276 39.6991 641.955 39.6262 641.575 39.6262C641.174 39.6262 640.849 39.6887 640.599 39.8137C640.354 39.9335 640.174 40.0872 640.06 40.2747C639.95 40.4622 639.896 40.6601 639.896 40.8684C639.896 41.0247 639.922 41.1653 639.974 41.2903C640.031 41.4101 640.13 41.5221 640.271 41.6262C640.411 41.7252 640.609 41.8189 640.864 41.9075C641.119 41.996 641.445 42.0846 641.841 42.1731C642.534 42.3293 643.104 42.5168 643.552 42.7356C644 42.9543 644.333 43.2226 644.552 43.5403C644.771 43.858 644.88 44.2434 644.88 44.6965C644.88 45.0663 644.802 45.4049 644.646 45.7122C644.494 46.0194 644.273 46.2851 643.981 46.509C643.695 46.7278 643.351 46.8997 642.95 47.0247C642.554 47.1444 642.109 47.2043 641.614 47.2043C640.869 47.2043 640.239 47.0715 639.724 46.8059C639.208 46.5403 638.817 46.1965 638.552 45.7747C638.286 45.3528 638.153 44.9075 638.153 44.4387H639.606C639.627 44.8346 639.742 45.1497 639.95 45.384C640.159 45.6132 640.414 45.7773 640.716 45.8762C641.018 45.97 641.317 46.0168 641.614 46.0168C642.01 46.0168 642.341 45.9648 642.606 45.8606C642.877 45.7564 643.083 45.6132 643.224 45.4309C643.364 45.2486 643.435 45.0403 643.435 44.8059ZM589.536 62.595V71.0481H588.083V62.595H589.536ZM587.974 60.3528C587.974 60.1184 588.044 59.9205 588.185 59.759C588.33 59.5976 588.544 59.5168 588.825 59.5168C589.101 59.5168 589.312 59.5976 589.458 59.759C589.609 59.9205 589.685 60.1184 589.685 60.3528C589.685 60.5767 589.609 60.7694 589.458 60.9309C589.312 61.0872 589.101 61.1653 588.825 61.1653C588.544 61.1653 588.33 61.0872 588.185 60.9309C588.044 60.7694 587.974 60.5767 587.974 60.3528ZM593.302 64.3997V71.0481H591.856V62.595H593.224L593.302 64.3997ZM592.958 66.5012L592.356 66.4778C592.362 65.8997 592.448 65.3658 592.614 64.8762C592.781 64.3814 593.015 63.9517 593.317 63.5872C593.619 63.2226 593.979 62.9413 594.396 62.7434C594.817 62.5403 595.284 62.4387 595.794 62.4387C596.211 62.4387 596.586 62.496 596.919 62.6106C597.252 62.72 597.536 62.8971 597.771 63.1418C598.01 63.3866 598.192 63.7043 598.317 64.095C598.442 64.4804 598.505 64.9517 598.505 65.509V71.0481H597.052V65.4934C597.052 65.0507 596.987 64.6965 596.856 64.4309C596.726 64.1601 596.536 63.9648 596.286 63.845C596.036 63.72 595.729 63.6575 595.364 63.6575C595.005 63.6575 594.677 63.733 594.38 63.884C594.088 64.0351 593.836 64.2434 593.622 64.509C593.414 64.7747 593.25 65.0793 593.13 65.4231C593.015 65.7616 592.958 66.121 592.958 66.5012ZM606.114 64.22V74.2981H604.661V62.595H605.989L606.114 64.22ZM611.81 66.7512V66.9153C611.81 67.5299 611.737 68.1002 611.591 68.6262C611.445 69.1471 611.231 69.6002 610.95 69.9856C610.674 70.371 610.333 70.6705 609.927 70.884C609.521 71.0976 609.054 71.2043 608.528 71.2043C607.992 71.2043 607.518 71.1158 607.106 70.9387C606.695 70.7616 606.346 70.5038 606.06 70.1653C605.773 69.8267 605.544 69.4205 605.372 68.9465C605.205 68.4726 605.091 67.9387 605.028 67.345V66.47C605.091 65.845 605.208 65.2851 605.38 64.7903C605.552 64.2955 605.778 63.8736 606.06 63.5247C606.346 63.1705 606.692 62.9023 607.099 62.72C607.505 62.5325 607.974 62.4387 608.505 62.4387C609.036 62.4387 609.507 62.5429 609.919 62.7512C610.33 62.9543 610.677 63.246 610.958 63.6262C611.239 64.0064 611.45 64.4622 611.591 64.9934C611.737 65.5194 611.81 66.1054 611.81 66.7512ZM610.356 66.9153V66.7512C610.356 66.3293 610.312 65.9335 610.224 65.5637C610.135 65.1887 609.997 64.8606 609.81 64.5793C609.627 64.2929 609.393 64.0689 609.106 63.9075C608.82 63.7408 608.479 63.6575 608.083 63.6575C607.718 63.6575 607.401 63.72 607.13 63.845C606.864 63.97 606.638 64.1392 606.45 64.3528C606.263 64.5611 606.109 64.8007 605.989 65.0715C605.875 65.3372 605.789 65.6132 605.731 65.8997V67.9231C605.836 68.2877 605.981 68.6314 606.169 68.9543C606.356 69.2721 606.606 69.5299 606.919 69.7278C607.231 69.9205 607.625 70.0168 608.099 70.0168C608.489 70.0168 608.825 69.9361 609.106 69.7747C609.393 69.608 609.627 69.3814 609.81 69.095C609.997 68.8085 610.135 68.4804 610.224 68.1106C610.312 67.7356 610.356 67.3372 610.356 66.9153ZM615.099 63.9231V71.0481H613.653V62.595H615.06L615.099 63.9231ZM617.739 62.5481L617.731 63.8918C617.612 63.8658 617.497 63.8502 617.388 63.845C617.284 63.8346 617.164 63.8293 617.028 63.8293C616.695 63.8293 616.401 63.8814 616.146 63.9856C615.89 64.0898 615.674 64.2356 615.497 64.4231C615.32 64.6106 615.179 64.8346 615.075 65.095C614.976 65.3502 614.911 65.6314 614.88 65.9387L614.474 66.1731C614.474 65.6627 614.523 65.1835 614.622 64.7356C614.726 64.2877 614.885 63.8918 615.099 63.5481C615.312 63.1991 615.583 62.9283 615.911 62.7356C616.244 62.5377 616.64 62.4387 617.099 62.4387C617.203 62.4387 617.323 62.4517 617.458 62.4778C617.593 62.4986 617.687 62.5221 617.739 62.5481ZM618.536 66.9153V66.7356C618.536 66.1262 618.625 65.5611 618.802 65.0403C618.979 64.5142 619.234 64.0585 619.567 63.6731C619.901 63.2825 620.304 62.9804 620.778 62.7668C621.252 62.5481 621.784 62.4387 622.372 62.4387C622.966 62.4387 623.5 62.5481 623.974 62.7668C624.453 62.9804 624.859 63.2825 625.192 63.6731C625.531 64.0585 625.789 64.5142 625.966 65.0403C626.143 65.5611 626.231 66.1262 626.231 66.7356V66.9153C626.231 67.5247 626.143 68.0898 625.966 68.6106C625.789 69.1314 625.531 69.5872 625.192 69.9778C624.859 70.3632 624.455 70.6653 623.981 70.884C623.513 71.0976 622.981 71.2043 622.388 71.2043C621.794 71.2043 621.26 71.0976 620.786 70.884C620.312 70.6653 619.906 70.3632 619.567 69.9778C619.234 69.5872 618.979 69.1314 618.802 68.6106C618.625 68.0898 618.536 67.5247 618.536 66.9153ZM619.981 66.7356V66.9153C619.981 67.3372 620.031 67.7356 620.13 68.1106C620.229 68.4804 620.377 68.8085 620.575 69.095C620.778 69.3814 621.031 69.608 621.333 69.7747C621.635 69.9361 621.987 70.0168 622.388 70.0168C622.784 70.0168 623.13 69.9361 623.427 69.7747C623.729 69.608 623.979 69.3814 624.177 69.095C624.375 68.8085 624.523 68.4804 624.622 68.1106C624.726 67.7356 624.778 67.3372 624.778 66.9153V66.7356C624.778 66.3189 624.726 65.9257 624.622 65.5559C624.523 65.1809 624.372 64.8502 624.169 64.5637C623.971 64.2721 623.721 64.0429 623.419 63.8762C623.122 63.7096 622.773 63.6262 622.372 63.6262C621.976 63.6262 621.627 63.7096 621.325 63.8762C621.028 64.0429 620.778 64.2721 620.575 64.5637C620.377 64.8502 620.229 65.1809 620.13 65.5559C620.031 65.9257 619.981 66.3189 619.981 66.7356ZM633.521 62.595H634.833V70.8684C634.833 71.6132 634.682 72.2486 634.38 72.7747C634.078 73.3007 633.656 73.6991 633.114 73.97C632.578 74.246 631.958 74.384 631.255 74.384C630.963 74.384 630.619 74.3372 630.224 74.2434C629.833 74.1549 629.448 74.0012 629.067 73.7825C628.692 73.5689 628.377 73.2799 628.122 72.9153L628.88 72.0559C629.234 72.483 629.604 72.7799 629.989 72.9465C630.38 73.1132 630.765 73.1965 631.146 73.1965C631.604 73.1965 632 73.1106 632.333 72.9387C632.666 72.7668 632.924 72.5116 633.106 72.1731C633.294 71.8398 633.388 71.4283 633.388 70.9387V64.4543L633.521 62.595ZM627.7 66.9153V66.7512C627.7 66.1054 627.776 65.5194 627.927 64.9934C628.083 64.4622 628.304 64.0064 628.591 63.6262C628.882 63.246 629.234 62.9543 629.646 62.7512C630.057 62.5429 630.521 62.4387 631.036 62.4387C631.567 62.4387 632.031 62.5325 632.427 62.72C632.828 62.9023 633.166 63.1705 633.442 63.5247C633.724 63.8736 633.945 64.2955 634.106 64.7903C634.268 65.2851 634.38 65.845 634.442 66.47V67.1887C634.385 67.8085 634.273 68.3658 634.106 68.8606C633.945 69.3554 633.724 69.7773 633.442 70.1262C633.166 70.4752 632.828 70.7434 632.427 70.9309C632.026 71.1132 631.557 71.2043 631.021 71.2043C630.515 71.2043 630.057 71.0976 629.646 70.884C629.239 70.6705 628.89 70.371 628.599 69.9856C628.307 69.6002 628.083 69.1471 627.927 68.6262C627.776 68.1002 627.7 67.5299 627.7 66.9153ZM629.146 66.7512V66.9153C629.146 67.3372 629.187 67.733 629.271 68.1028C629.359 68.4726 629.492 68.7981 629.669 69.0793C629.851 69.3606 630.083 69.5819 630.364 69.7434C630.646 69.8997 630.981 69.9778 631.372 69.9778C631.851 69.9778 632.247 69.8762 632.56 69.6731C632.872 69.47 633.119 69.2017 633.302 68.8684C633.489 68.5351 633.635 68.1731 633.739 67.7825V65.8997C633.682 65.6132 633.593 65.3372 633.474 65.0715C633.359 64.8007 633.208 64.5611 633.021 64.3528C632.838 64.1392 632.612 63.97 632.341 63.845C632.07 63.72 631.752 63.6575 631.388 63.6575C630.992 63.6575 630.651 63.7408 630.364 63.9075C630.083 64.0689 629.851 64.2929 629.669 64.5793C629.492 64.8606 629.359 65.1887 629.271 65.5637C629.187 65.9335 629.146 66.3293 629.146 66.7512ZM638.474 63.9231V71.0481H637.028V62.595H638.435L638.474 63.9231ZM641.114 62.5481L641.106 63.8918C640.987 63.8658 640.872 63.8502 640.763 63.845C640.659 63.8346 640.539 63.8293 640.403 63.8293C640.07 63.8293 639.776 63.8814 639.521 63.9856C639.265 64.0898 639.049 64.2356 638.872 64.4231C638.695 64.6106 638.554 64.8346 638.45 65.095C638.351 65.3502 638.286 65.6314 638.255 65.9387L637.849 66.1731C637.849 65.6627 637.898 65.1835 637.997 64.7356C638.101 64.2877 638.26 63.8918 638.474 63.5481C638.687 63.1991 638.958 62.9283 639.286 62.7356C639.619 62.5377 640.015 62.4387 640.474 62.4387C640.578 62.4387 640.698 62.4517 640.833 62.4778C640.968 62.4986 641.062 62.5221 641.114 62.5481ZM645.802 71.2043C645.213 71.2043 644.679 71.1054 644.2 70.9075C643.726 70.7043 643.317 70.4205 642.974 70.0559C642.635 69.6913 642.375 69.259 642.192 68.759C642.01 68.259 641.919 67.7122 641.919 67.1184V66.7903C641.919 66.1028 642.021 65.4908 642.224 64.9543C642.427 64.4127 642.703 63.9543 643.052 63.5793C643.401 63.2043 643.797 62.9205 644.239 62.7278C644.682 62.5351 645.14 62.4387 645.614 62.4387C646.218 62.4387 646.739 62.5429 647.177 62.7512C647.619 62.9596 647.981 63.2512 648.263 63.6262C648.544 63.996 648.752 64.4335 648.888 64.9387C649.023 65.4387 649.091 65.9856 649.091 66.5793V67.2278H642.778V66.0481H647.646V65.9387C647.625 65.5637 647.547 65.1991 647.411 64.845C647.281 64.4908 647.073 64.1991 646.786 63.97C646.5 63.7408 646.109 63.6262 645.614 63.6262C645.286 63.6262 644.984 63.6965 644.708 63.8372C644.432 63.9726 644.195 64.1757 643.997 64.4465C643.799 64.7174 643.646 65.0481 643.536 65.4387C643.427 65.8293 643.372 66.2799 643.372 66.7903V67.1184C643.372 67.5194 643.427 67.8971 643.536 68.2512C643.651 68.6002 643.815 68.9075 644.028 69.1731C644.247 69.4387 644.51 69.6471 644.817 69.7981C645.13 69.9491 645.484 70.0247 645.88 70.0247C646.39 70.0247 646.823 69.9205 647.177 69.7122C647.531 69.5038 647.841 69.2252 648.106 68.8762L648.981 69.5715C648.799 69.8476 648.567 70.1106 648.286 70.3606C648.005 70.6106 647.659 70.8137 647.247 70.97C646.841 71.1262 646.359 71.2043 645.802 71.2043ZM655.7 68.8059C655.7 68.5976 655.653 68.4049 655.56 68.2278C655.471 68.0455 655.286 67.8814 655.005 67.7356C654.729 67.5846 654.312 67.4543 653.755 67.345C653.286 67.246 652.862 67.1288 652.481 66.9934C652.106 66.858 651.786 66.6939 651.521 66.5012C651.26 66.3085 651.06 66.0819 650.919 65.8215C650.778 65.5611 650.708 65.2564 650.708 64.9075C650.708 64.5741 650.781 64.259 650.927 63.9622C651.078 63.6653 651.289 63.4023 651.56 63.1731C651.836 62.9439 652.166 62.7642 652.552 62.634C652.937 62.5038 653.367 62.4387 653.841 62.4387C654.518 62.4387 655.096 62.5585 655.575 62.7981C656.054 63.0377 656.422 63.358 656.677 63.759C656.932 64.1549 657.06 64.595 657.06 65.0793H655.614C655.614 64.845 655.544 64.6184 655.403 64.3997C655.268 64.1757 655.067 63.9908 654.802 63.845C654.541 63.6991 654.221 63.6262 653.841 63.6262C653.44 63.6262 653.114 63.6887 652.864 63.8137C652.619 63.9335 652.44 64.0872 652.325 64.2747C652.216 64.4622 652.161 64.6601 652.161 64.8684C652.161 65.0247 652.187 65.1653 652.239 65.2903C652.297 65.4101 652.396 65.5221 652.536 65.6262C652.677 65.7252 652.875 65.8189 653.13 65.9075C653.385 65.996 653.711 66.0846 654.106 66.1731C654.799 66.3293 655.369 66.5168 655.817 66.7356C656.265 66.9543 656.599 67.2226 656.817 67.5403C657.036 67.858 657.146 68.2434 657.146 68.6965C657.146 69.0663 657.067 69.4049 656.911 69.7122C656.76 70.0194 656.539 70.2851 656.247 70.509C655.961 70.7278 655.617 70.8997 655.216 71.0247C654.82 71.1444 654.375 71.2043 653.88 71.2043C653.135 71.2043 652.505 71.0715 651.989 70.8059C651.474 70.5403 651.083 70.1965 650.817 69.7747C650.552 69.3528 650.419 68.9075 650.419 68.4387H651.872C651.893 68.8346 652.007 69.1497 652.216 69.384C652.424 69.6132 652.679 69.7773 652.981 69.8762C653.284 69.97 653.583 70.0168 653.88 70.0168C654.276 70.0168 654.606 69.9648 654.872 69.8606C655.143 69.7564 655.349 69.6132 655.489 69.4309C655.63 69.2486 655.7 69.0403 655.7 68.8059ZM663.966 68.8059C663.966 68.5976 663.919 68.4049 663.825 68.2278C663.737 68.0455 663.552 67.8814 663.271 67.7356C662.994 67.5846 662.578 67.4543 662.021 67.345C661.552 67.246 661.127 67.1288 660.747 66.9934C660.372 66.858 660.052 66.6939 659.786 66.5012C659.526 66.3085 659.325 66.0819 659.185 65.8215C659.044 65.5611 658.974 65.2564 658.974 64.9075C658.974 64.5741 659.047 64.259 659.192 63.9622C659.343 63.6653 659.554 63.4023 659.825 63.1731C660.101 62.9439 660.432 62.7642 660.817 62.634C661.203 62.5038 661.632 62.4387 662.106 62.4387C662.784 62.4387 663.362 62.5585 663.841 62.7981C664.32 63.0377 664.687 63.358 664.942 63.759C665.198 64.1549 665.325 64.595 665.325 65.0793H663.88C663.88 64.845 663.81 64.6184 663.669 64.3997C663.534 64.1757 663.333 63.9908 663.067 63.845C662.807 63.6991 662.487 63.6262 662.106 63.6262C661.705 63.6262 661.38 63.6887 661.13 63.8137C660.885 63.9335 660.705 64.0872 660.591 64.2747C660.481 64.4622 660.427 64.6601 660.427 64.8684C660.427 65.0247 660.453 65.1653 660.505 65.2903C660.562 65.4101 660.661 65.5221 660.802 65.6262C660.942 65.7252 661.14 65.8189 661.396 65.9075C661.651 65.996 661.976 66.0846 662.372 66.1731C663.065 66.3293 663.635 66.5168 664.083 66.7356C664.531 66.9543 664.864 67.2226 665.083 67.5403C665.302 67.858 665.411 68.2434 665.411 68.6965C665.411 69.0663 665.333 69.4049 665.177 69.7122C665.026 70.0194 664.804 70.2851 664.513 70.509C664.226 70.7278 663.882 70.8997 663.481 71.0247C663.086 71.1444 662.64 71.2043 662.146 71.2043C661.401 71.2043 660.771 71.0715 660.255 70.8059C659.739 70.5403 659.349 70.1965 659.083 69.7747C658.817 69.3528 658.685 68.9075 658.685 68.4387H660.138C660.159 68.8346 660.273 69.1497 660.481 69.384C660.69 69.6132 660.945 69.7773 661.247 69.8762C661.549 69.97 661.849 70.0168 662.146 70.0168C662.541 70.0168 662.872 69.9648 663.138 69.8606C663.409 69.7564 663.614 69.6132 663.755 69.4309C663.896 69.2486 663.966 69.0403 663.966 68.8059Z" fill="#231F20"/>
<path d="M507.545 32.5841C508.356 32.3281 509.273 32.1148 510.297 31.9441C511.364 31.7734 512.324 31.6881 513.177 31.6881C514.159 31.6881 515.097 31.7948 515.993 32.0081C516.932 32.1788 517.764 32.4988 518.489 32.9681C519.215 33.3948 519.791 33.9921 520.217 34.7601C520.644 35.5281 520.857 36.4881 520.857 37.6401V54.6641H526.553C526.809 55.1334 527.065 55.7521 527.321 56.5201C527.577 57.2881 527.705 58.0988 527.705 58.9521C527.705 60.5734 527.343 61.7254 526.617 62.4081C525.892 63.0908 524.975 63.4321 523.865 63.4321H520.857V70.9841C520.388 71.0694 519.684 71.1761 518.745 71.3041C517.807 71.4748 516.911 71.5601 516.057 71.5601C515.119 71.5601 514.287 71.5174 513.561 71.4321C512.836 71.3468 512.217 71.1548 511.705 70.8561C511.236 70.5148 510.873 70.0454 510.617 69.4481C510.361 68.8508 510.233 68.0401 510.233 67.0161V63.4321H494.169C493.188 62.9201 492.335 62.1734 491.609 61.1921C490.927 60.1681 490.585 58.9308 490.585 57.4801C490.585 56.6694 490.692 55.7734 490.905 54.7921C491.119 53.8108 491.481 52.9574 491.993 52.2321L507.545 32.5841ZM510.809 42.6321H510.617L502.105 54.6641H510.809V42.6321Z" fill="#231F20"/>
<rect width="378.368" height="96.3316" rx="14" fill="#F3F3F3"/>
<path d="M185.373 43.4309H186.873C186.795 44.1497 186.589 44.7929 186.256 45.3606C185.923 45.9283 185.451 46.3788 184.842 46.7122C184.232 47.0403 183.472 47.2043 182.561 47.2043C181.894 47.2043 181.287 47.0793 180.74 46.8293C180.199 46.5793 179.732 46.2252 179.342 45.7668C178.951 45.3033 178.649 44.7486 178.436 44.1028C178.227 43.4517 178.123 42.7278 178.123 41.9309V40.7981C178.123 40.0012 178.227 39.2799 178.436 38.634C178.649 37.983 178.954 37.4257 179.35 36.9622C179.751 36.4986 180.232 36.1418 180.795 35.8918C181.357 35.6418 181.99 35.5168 182.693 35.5168C183.553 35.5168 184.279 35.6783 184.873 36.0012C185.467 36.3241 185.928 36.7721 186.256 37.345C186.589 37.9127 186.795 38.5715 186.873 39.3215H185.373C185.3 38.7903 185.165 38.3346 184.967 37.9543C184.769 37.5689 184.488 37.2721 184.123 37.0637C183.758 36.8554 183.282 36.7512 182.693 36.7512C182.188 36.7512 181.743 36.8476 181.357 37.0403C180.977 37.233 180.657 37.5064 180.396 37.8606C180.141 38.2148 179.949 38.6392 179.818 39.134C179.688 39.6288 179.623 40.1783 179.623 40.7825V41.9309C179.623 42.4882 179.68 43.0116 179.795 43.5012C179.915 43.9908 180.094 44.4205 180.334 44.7903C180.574 45.1601 180.878 45.4517 181.248 45.6653C181.618 45.8736 182.055 45.9778 182.561 45.9778C183.201 45.9778 183.712 45.8762 184.092 45.6731C184.472 45.47 184.758 45.1783 184.951 44.7981C185.149 44.4179 185.29 43.9622 185.373 43.4309ZM188.326 42.9153V42.7356C188.326 42.1262 188.415 41.5611 188.592 41.0403C188.769 40.5142 189.024 40.0585 189.357 39.6731C189.691 39.2825 190.094 38.9804 190.568 38.7668C191.042 38.5481 191.574 38.4387 192.162 38.4387C192.756 38.4387 193.29 38.5481 193.764 38.7668C194.243 38.9804 194.649 39.2825 194.982 39.6731C195.321 40.0585 195.579 40.5142 195.756 41.0403C195.933 41.5611 196.021 42.1262 196.021 42.7356V42.9153C196.021 43.5247 195.933 44.0898 195.756 44.6106C195.579 45.1314 195.321 45.5872 194.982 45.9778C194.649 46.3632 194.245 46.6653 193.771 46.884C193.303 47.0976 192.771 47.2043 192.178 47.2043C191.584 47.2043 191.05 47.0976 190.576 46.884C190.102 46.6653 189.696 46.3632 189.357 45.9778C189.024 45.5872 188.769 45.1314 188.592 44.6106C188.415 44.0898 188.326 43.5247 188.326 42.9153ZM189.771 42.7356V42.9153C189.771 43.3372 189.821 43.7356 189.92 44.1106C190.019 44.4804 190.167 44.8085 190.365 45.095C190.568 45.3814 190.821 45.608 191.123 45.7747C191.425 45.9361 191.777 46.0168 192.178 46.0168C192.574 46.0168 192.92 45.9361 193.217 45.7747C193.519 45.608 193.769 45.3814 193.967 45.095C194.165 44.8085 194.313 44.4804 194.412 44.1106C194.516 43.7356 194.568 43.3372 194.568 42.9153V42.7356C194.568 42.3189 194.516 41.9257 194.412 41.5559C194.313 41.1809 194.162 40.8502 193.959 40.5637C193.761 40.2721 193.511 40.0429 193.209 39.8762C192.912 39.7096 192.563 39.6262 192.162 39.6262C191.766 39.6262 191.417 39.7096 191.115 39.8762C190.818 40.0429 190.568 40.2721 190.365 40.5637C190.167 40.8502 190.019 41.1809 189.92 41.5559C189.821 41.9257 189.771 42.3189 189.771 42.7356ZM203.006 45.095V38.595H204.459V47.0481H203.076L203.006 45.095ZM203.279 43.3137L203.881 43.2981C203.881 43.8606 203.821 44.3814 203.701 44.8606C203.587 45.3346 203.399 45.746 203.139 46.095C202.878 46.4439 202.537 46.7174 202.115 46.9153C201.693 47.108 201.18 47.2043 200.576 47.2043C200.165 47.2043 199.787 47.1444 199.443 47.0247C199.105 46.9049 198.813 46.72 198.568 46.47C198.324 46.22 198.133 45.8944 197.998 45.4934C197.868 45.0924 197.803 44.6106 197.803 44.0481V38.595H199.248V44.0637C199.248 44.4439 199.29 44.759 199.373 45.009C199.462 45.2538 199.579 45.4491 199.725 45.595C199.876 45.7356 200.042 45.8346 200.225 45.8918C200.412 45.9491 200.605 45.9778 200.803 45.9778C201.417 45.9778 201.904 45.8606 202.264 45.6262C202.623 45.3866 202.881 45.0663 203.037 44.6653C203.199 44.259 203.279 43.8085 203.279 43.3137ZM208.107 39.9231V47.0481H206.662V38.595H208.068L208.107 39.9231ZM210.748 38.5481L210.74 39.8918C210.62 39.8658 210.506 39.8502 210.396 39.845C210.292 39.8346 210.173 39.8293 210.037 39.8293C209.704 39.8293 209.41 39.8814 209.154 39.9856C208.899 40.0898 208.683 40.2356 208.506 40.4231C208.329 40.6106 208.188 40.8346 208.084 41.095C207.985 41.3502 207.92 41.6314 207.889 41.9387L207.482 42.1731C207.482 41.6627 207.532 41.1835 207.631 40.7356C207.735 40.2877 207.894 39.8918 208.107 39.5481C208.321 39.1991 208.592 38.9283 208.92 38.7356C209.253 38.5377 209.649 38.4387 210.107 38.4387C210.212 38.4387 210.331 38.4517 210.467 38.4778C210.602 38.4986 210.696 38.5221 210.748 38.5481ZM217.006 44.8059C217.006 44.5976 216.959 44.4049 216.865 44.2278C216.777 44.0455 216.592 43.8814 216.311 43.7356C216.035 43.5846 215.618 43.4543 215.061 43.345C214.592 43.246 214.167 43.1288 213.787 42.9934C213.412 42.858 213.092 42.6939 212.826 42.5012C212.566 42.3085 212.365 42.0819 212.225 41.8215C212.084 41.5611 212.014 41.2564 212.014 40.9075C212.014 40.5741 212.087 40.259 212.232 39.9622C212.383 39.6653 212.594 39.4023 212.865 39.1731C213.141 38.9439 213.472 38.7642 213.857 38.634C214.243 38.5038 214.673 38.4387 215.146 38.4387C215.824 38.4387 216.402 38.5585 216.881 38.7981C217.36 39.0377 217.727 39.358 217.982 39.759C218.238 40.1549 218.365 40.595 218.365 41.0793H216.92C216.92 40.845 216.85 40.6184 216.709 40.3997C216.574 40.1757 216.373 39.9908 216.107 39.845C215.847 39.6991 215.527 39.6262 215.146 39.6262C214.745 39.6262 214.42 39.6887 214.17 39.8137C213.925 39.9335 213.745 40.0872 213.631 40.2747C213.521 40.4622 213.467 40.6601 213.467 40.8684C213.467 41.0247 213.493 41.1653 213.545 41.2903C213.602 41.4101 213.701 41.5221 213.842 41.6262C213.982 41.7252 214.18 41.8189 214.436 41.9075C214.691 41.996 215.016 42.0846 215.412 42.1731C216.105 42.3293 216.675 42.5168 217.123 42.7356C217.571 42.9543 217.904 43.2226 218.123 43.5403C218.342 43.858 218.451 44.2434 218.451 44.6965C218.451 45.0663 218.373 45.4049 218.217 45.7122C218.066 46.0194 217.844 46.2851 217.553 46.509C217.266 46.7278 216.923 46.8997 216.521 47.0247C216.126 47.1444 215.68 47.2043 215.186 47.2043C214.441 47.2043 213.811 47.0715 213.295 46.8059C212.779 46.5403 212.389 46.1965 212.123 45.7747C211.857 45.3528 211.725 44.9075 211.725 44.4387H213.178C213.199 44.8346 213.313 45.1497 213.521 45.384C213.73 45.6132 213.985 45.7773 214.287 45.8762C214.589 45.97 214.889 46.0168 215.186 46.0168C215.581 46.0168 215.912 45.9648 216.178 45.8606C216.449 45.7564 216.654 45.6132 216.795 45.4309C216.936 45.2486 217.006 45.0403 217.006 44.8059ZM223.857 47.2043C223.269 47.2043 222.735 47.1054 222.256 46.9075C221.782 46.7043 221.373 46.4205 221.029 46.0559C220.691 45.6913 220.43 45.259 220.248 44.759C220.066 44.259 219.975 43.7122 219.975 43.1184V42.7903C219.975 42.1028 220.076 41.4908 220.279 40.9543C220.482 40.4127 220.758 39.9543 221.107 39.5793C221.456 39.2043 221.852 38.9205 222.295 38.7278C222.738 38.5351 223.196 38.4387 223.67 38.4387C224.274 38.4387 224.795 38.5429 225.232 38.7512C225.675 38.9596 226.037 39.2512 226.318 39.6262C226.6 39.996 226.808 40.4335 226.943 40.9387C227.079 41.4387 227.146 41.9856 227.146 42.5793V43.2278H220.834V42.0481H225.701V41.9387C225.68 41.5637 225.602 41.1991 225.467 40.845C225.337 40.4908 225.128 40.1991 224.842 39.97C224.555 39.7408 224.165 39.6262 223.67 39.6262C223.342 39.6262 223.04 39.6965 222.764 39.8372C222.488 39.9726 222.251 40.1757 222.053 40.4465C221.855 40.7174 221.701 41.0481 221.592 41.4387C221.482 41.8293 221.428 42.2799 221.428 42.7903V43.1184C221.428 43.5194 221.482 43.8971 221.592 44.2512C221.706 44.6002 221.87 44.9075 222.084 45.1731C222.303 45.4387 222.566 45.6471 222.873 45.7981C223.186 45.9491 223.54 46.0247 223.936 46.0247C224.446 46.0247 224.878 45.9205 225.232 45.7122C225.587 45.5038 225.896 45.2252 226.162 44.8762L227.037 45.5715C226.855 45.8476 226.623 46.1106 226.342 46.3606C226.061 46.6106 225.714 46.8137 225.303 46.97C224.896 47.1262 224.415 47.2043 223.857 47.2043ZM233.756 44.8059C233.756 44.5976 233.709 44.4049 233.615 44.2278C233.527 44.0455 233.342 43.8814 233.061 43.7356C232.785 43.5846 232.368 43.4543 231.811 43.345C231.342 43.246 230.917 43.1288 230.537 42.9934C230.162 42.858 229.842 42.6939 229.576 42.5012C229.316 42.3085 229.115 42.0819 228.975 41.8215C228.834 41.5611 228.764 41.2564 228.764 40.9075C228.764 40.5741 228.837 40.259 228.982 39.9622C229.133 39.6653 229.344 39.4023 229.615 39.1731C229.891 38.9439 230.222 38.7642 230.607 38.634C230.993 38.5038 231.423 38.4387 231.896 38.4387C232.574 38.4387 233.152 38.5585 233.631 38.7981C234.11 39.0377 234.477 39.358 234.732 39.759C234.988 40.1549 235.115 40.595 235.115 41.0793H233.67C233.67 40.845 233.6 40.6184 233.459 40.3997C233.324 40.1757 233.123 39.9908 232.857 39.845C232.597 39.6991 232.277 39.6262 231.896 39.6262C231.495 39.6262 231.17 39.6887 230.92 39.8137C230.675 39.9335 230.495 40.0872 230.381 40.2747C230.271 40.4622 230.217 40.6601 230.217 40.8684C230.217 41.0247 230.243 41.1653 230.295 41.2903C230.352 41.4101 230.451 41.5221 230.592 41.6262C230.732 41.7252 230.93 41.8189 231.186 41.9075C231.441 41.996 231.766 42.0846 232.162 42.1731C232.855 42.3293 233.425 42.5168 233.873 42.7356C234.321 42.9543 234.654 43.2226 234.873 43.5403C235.092 43.858 235.201 44.2434 235.201 44.6965C235.201 45.0663 235.123 45.4049 234.967 45.7122C234.816 46.0194 234.594 46.2851 234.303 46.509C234.016 46.7278 233.673 46.8997 233.271 47.0247C232.876 47.1444 232.43 47.2043 231.936 47.2043C231.191 47.2043 230.561 47.0715 230.045 46.8059C229.529 46.5403 229.139 46.1965 228.873 45.7747C228.607 45.3528 228.475 44.9075 228.475 44.4387H229.928C229.949 44.8346 230.063 45.1497 230.271 45.384C230.48 45.6132 230.735 45.7773 231.037 45.8762C231.339 45.97 231.639 46.0168 231.936 46.0168C232.331 46.0168 232.662 45.9648 232.928 45.8606C233.199 45.7564 233.404 45.6132 233.545 45.4309C233.686 45.2486 233.756 45.0403 233.756 44.8059ZM181.67 70.0168C182.014 70.0168 182.331 69.9465 182.623 69.8059C182.915 69.6653 183.154 69.4726 183.342 69.2278C183.529 68.9778 183.636 68.6939 183.662 68.3762H185.037C185.011 68.8762 184.842 69.3424 184.529 69.7747C184.222 70.2017 183.818 70.5481 183.318 70.8137C182.818 71.0741 182.269 71.2043 181.67 71.2043C181.035 71.2043 180.48 71.0924 180.006 70.8684C179.537 70.6444 179.146 70.3372 178.834 69.9465C178.527 69.5559 178.295 69.108 178.139 68.6028C177.988 68.0924 177.912 67.5533 177.912 66.9856V66.6575C177.912 66.0898 177.988 65.5533 178.139 65.0481C178.295 64.5377 178.527 64.0872 178.834 63.6965C179.146 63.3059 179.537 62.9986 180.006 62.7747C180.48 62.5507 181.035 62.4387 181.67 62.4387C182.331 62.4387 182.91 62.5741 183.404 62.845C183.899 63.1106 184.287 63.4752 184.568 63.9387C184.855 64.3971 185.011 64.9179 185.037 65.5012H183.662C183.636 65.1523 183.537 64.8372 183.365 64.5559C183.199 64.2747 182.969 64.0507 182.678 63.884C182.391 63.7122 182.055 63.6262 181.67 63.6262C181.227 63.6262 180.855 63.7148 180.553 63.8918C180.256 64.0637 180.019 64.2981 179.842 64.595C179.67 64.8866 179.545 65.2122 179.467 65.5715C179.394 65.9257 179.357 66.2877 179.357 66.6575V66.9856C179.357 67.3554 179.394 67.72 179.467 68.0793C179.54 68.4387 179.662 68.7642 179.834 69.0559C180.011 69.3476 180.248 69.5819 180.545 69.759C180.847 69.9309 181.222 70.0168 181.67 70.0168ZM186.279 66.9153V66.7356C186.279 66.1262 186.368 65.5611 186.545 65.0403C186.722 64.5142 186.977 64.0585 187.311 63.6731C187.644 63.2825 188.048 62.9804 188.521 62.7668C188.995 62.5481 189.527 62.4387 190.115 62.4387C190.709 62.4387 191.243 62.5481 191.717 62.7668C192.196 62.9804 192.602 63.2825 192.936 63.6731C193.274 64.0585 193.532 64.5142 193.709 65.0403C193.886 65.5611 193.975 66.1262 193.975 66.7356V66.9153C193.975 67.5247 193.886 68.0898 193.709 68.6106C193.532 69.1314 193.274 69.5872 192.936 69.9778C192.602 70.3632 192.199 70.6653 191.725 70.884C191.256 71.0976 190.725 71.2043 190.131 71.2043C189.537 71.2043 189.003 71.0976 188.529 70.884C188.055 70.6653 187.649 70.3632 187.311 69.9778C186.977 69.5872 186.722 69.1314 186.545 68.6106C186.368 68.0898 186.279 67.5247 186.279 66.9153ZM187.725 66.7356V66.9153C187.725 67.3372 187.774 67.7356 187.873 68.1106C187.972 68.4804 188.12 68.8085 188.318 69.095C188.521 69.3814 188.774 69.608 189.076 69.7747C189.378 69.9361 189.73 70.0168 190.131 70.0168C190.527 70.0168 190.873 69.9361 191.17 69.7747C191.472 69.608 191.722 69.3814 191.92 69.095C192.118 68.8085 192.266 68.4804 192.365 68.1106C192.469 67.7356 192.521 67.3372 192.521 66.9153V66.7356C192.521 66.3189 192.469 65.9257 192.365 65.5559C192.266 65.1809 192.115 64.8502 191.912 64.5637C191.714 64.2721 191.464 64.0429 191.162 63.8762C190.865 63.7096 190.516 63.6262 190.115 63.6262C189.719 63.6262 189.37 63.7096 189.068 63.8762C188.771 64.0429 188.521 64.2721 188.318 64.5637C188.12 64.8502 187.972 65.1809 187.873 65.5559C187.774 65.9257 187.725 66.3189 187.725 66.7356ZM197.225 64.2747V71.0481H195.771V62.595H197.146L197.225 64.2747ZM196.928 66.5012L196.256 66.4778C196.261 65.8997 196.337 65.3658 196.482 64.8762C196.628 64.3814 196.844 63.9517 197.131 63.5872C197.417 63.2226 197.774 62.9413 198.201 62.7434C198.628 62.5403 199.123 62.4387 199.686 62.4387C200.081 62.4387 200.446 62.496 200.779 62.6106C201.113 62.72 201.402 62.8944 201.646 63.134C201.891 63.3736 202.081 63.6809 202.217 64.0559C202.352 64.4309 202.42 64.884 202.42 65.4153V71.0481H200.975V65.4856C200.975 65.0429 200.899 64.6887 200.748 64.4231C200.602 64.1575 200.394 63.9648 200.123 63.845C199.852 63.72 199.535 63.6575 199.17 63.6575C198.743 63.6575 198.386 63.733 198.1 63.884C197.813 64.0351 197.584 64.2434 197.412 64.509C197.24 64.7747 197.115 65.0793 197.037 65.4231C196.964 65.7616 196.928 66.121 196.928 66.5012ZM202.404 65.7043L201.436 66.0012C201.441 65.5377 201.516 65.0924 201.662 64.6653C201.813 64.2382 202.029 63.858 202.311 63.5247C202.597 63.1913 202.949 62.9283 203.365 62.7356C203.782 62.5377 204.258 62.4387 204.795 62.4387C205.248 62.4387 205.649 62.4986 205.998 62.6184C206.352 62.7382 206.649 62.9231 206.889 63.1731C207.133 63.4179 207.318 63.733 207.443 64.1184C207.568 64.5038 207.631 64.9622 207.631 65.4934V71.0481H206.178V65.4778C206.178 65.0038 206.102 64.6366 205.951 64.3762C205.805 64.1106 205.597 63.9257 205.326 63.8215C205.061 63.7122 204.743 63.6575 204.373 63.6575C204.055 63.6575 203.774 63.7122 203.529 63.8215C203.285 63.9309 203.079 64.0819 202.912 64.2747C202.745 64.4622 202.618 64.6783 202.529 64.9231C202.446 65.1679 202.404 65.4283 202.404 65.7043ZM211.264 64.22V74.2981H209.811V62.595H211.139L211.264 64.22ZM216.959 66.7512V66.9153C216.959 67.5299 216.886 68.1002 216.74 68.6262C216.594 69.1471 216.381 69.6002 216.1 69.9856C215.824 70.371 215.482 70.6705 215.076 70.884C214.67 71.0976 214.204 71.2043 213.678 71.2043C213.141 71.2043 212.667 71.1158 212.256 70.9387C211.844 70.7616 211.495 70.5038 211.209 70.1653C210.923 69.8267 210.693 69.4205 210.521 68.9465C210.355 68.4726 210.24 67.9387 210.178 67.345V66.47C210.24 65.845 210.357 65.2851 210.529 64.7903C210.701 64.2955 210.928 63.8736 211.209 63.5247C211.495 63.1705 211.842 62.9023 212.248 62.72C212.654 62.5325 213.123 62.4387 213.654 62.4387C214.186 62.4387 214.657 62.5429 215.068 62.7512C215.48 62.9543 215.826 63.246 216.107 63.6262C216.389 64.0064 216.6 64.4622 216.74 64.9934C216.886 65.5194 216.959 66.1054 216.959 66.7512ZM215.506 66.9153V66.7512C215.506 66.3293 215.462 65.9335 215.373 65.5637C215.285 65.1887 215.146 64.8606 214.959 64.5793C214.777 64.2929 214.542 64.0689 214.256 63.9075C213.969 63.7408 213.628 63.6575 213.232 63.6575C212.868 63.6575 212.55 63.72 212.279 63.845C212.014 63.97 211.787 64.1392 211.6 64.3528C211.412 64.5611 211.258 64.8007 211.139 65.0715C211.024 65.3372 210.938 65.6132 210.881 65.8997V67.9231C210.985 68.2877 211.131 68.6314 211.318 68.9543C211.506 69.2721 211.756 69.5299 212.068 69.7278C212.381 69.9205 212.774 70.0168 213.248 70.0168C213.639 70.0168 213.975 69.9361 214.256 69.7747C214.542 69.608 214.777 69.3814 214.959 69.095C215.146 68.8085 215.285 68.4804 215.373 68.1106C215.462 67.7356 215.506 67.3372 215.506 66.9153ZM220.373 59.0481V71.0481H218.92V59.0481H220.373ZM226.201 71.2043C225.613 71.2043 225.079 71.1054 224.6 70.9075C224.126 70.7043 223.717 70.4205 223.373 70.0559C223.035 69.6913 222.774 69.259 222.592 68.759C222.41 68.259 222.318 67.7122 222.318 67.1184V66.7903C222.318 66.1028 222.42 65.4908 222.623 64.9543C222.826 64.4127 223.102 63.9543 223.451 63.5793C223.8 63.2043 224.196 62.9205 224.639 62.7278C225.081 62.5351 225.54 62.4387 226.014 62.4387C226.618 62.4387 227.139 62.5429 227.576 62.7512C228.019 62.9596 228.381 63.2512 228.662 63.6262C228.943 63.996 229.152 64.4335 229.287 64.9387C229.423 65.4387 229.49 65.9856 229.49 66.5793V67.2278H223.178V66.0481H228.045V65.9387C228.024 65.5637 227.946 65.1991 227.811 64.845C227.68 64.4908 227.472 64.1991 227.186 63.97C226.899 63.7408 226.508 63.6262 226.014 63.6262C225.686 63.6262 225.383 63.6965 225.107 63.8372C224.831 63.9726 224.594 64.1757 224.396 64.4465C224.199 64.7174 224.045 65.0481 223.936 65.4387C223.826 65.8293 223.771 66.2799 223.771 66.7903V67.1184C223.771 67.5194 223.826 67.8971 223.936 68.2512C224.05 68.6002 224.214 68.9075 224.428 69.1731C224.646 69.4387 224.91 69.6471 225.217 69.7981C225.529 69.9491 225.883 70.0247 226.279 70.0247C226.79 70.0247 227.222 69.9205 227.576 69.7122C227.93 69.5038 228.24 69.2252 228.506 68.8762L229.381 69.5715C229.199 69.8476 228.967 70.1106 228.686 70.3606C228.404 70.6106 228.058 70.8137 227.646 70.97C227.24 71.1262 226.758 71.2043 226.201 71.2043ZM234.717 62.595V63.7043H230.146V62.595H234.717ZM231.693 60.5403H233.139V68.9543C233.139 69.2408 233.183 69.4569 233.271 69.6028C233.36 69.7486 233.475 69.845 233.615 69.8918C233.756 69.9387 233.907 69.9622 234.068 69.9622C234.188 69.9622 234.313 69.9517 234.443 69.9309C234.579 69.9049 234.68 69.884 234.748 69.8684L234.756 71.0481C234.641 71.0846 234.49 71.1184 234.303 71.1497C234.12 71.1861 233.899 71.2043 233.639 71.2043C233.285 71.2043 232.959 71.134 232.662 70.9934C232.365 70.8528 232.128 70.6184 231.951 70.2903C231.779 69.9569 231.693 69.509 231.693 68.9465V60.5403ZM239.92 71.2043C239.331 71.2043 238.798 71.1054 238.318 70.9075C237.844 70.7043 237.436 70.4205 237.092 70.0559C236.753 69.6913 236.493 69.259 236.311 68.759C236.128 68.259 236.037 67.7122 236.037 67.1184V66.7903C236.037 66.1028 236.139 65.4908 236.342 64.9543C236.545 64.4127 236.821 63.9543 237.17 63.5793C237.519 63.2043 237.915 62.9205 238.357 62.7278C238.8 62.5351 239.258 62.4387 239.732 62.4387C240.337 62.4387 240.857 62.5429 241.295 62.7512C241.738 62.9596 242.1 63.2512 242.381 63.6262C242.662 63.996 242.87 64.4335 243.006 64.9387C243.141 65.4387 243.209 65.9856 243.209 66.5793V67.2278H236.896V66.0481H241.764V65.9387C241.743 65.5637 241.665 65.1991 241.529 64.845C241.399 64.4908 241.191 64.1991 240.904 63.97C240.618 63.7408 240.227 63.6262 239.732 63.6262C239.404 63.6262 239.102 63.6965 238.826 63.8372C238.55 63.9726 238.313 64.1757 238.115 64.4465C237.917 64.7174 237.764 65.0481 237.654 65.4387C237.545 65.8293 237.49 66.2799 237.49 66.7903V67.1184C237.49 67.5194 237.545 67.8971 237.654 68.2512C237.769 68.6002 237.933 68.9075 238.146 69.1731C238.365 69.4387 238.628 69.6471 238.936 69.7981C239.248 69.9491 239.602 70.0247 239.998 70.0247C240.508 70.0247 240.941 69.9205 241.295 69.7122C241.649 69.5038 241.959 69.2252 242.225 68.8762L243.1 69.5715C242.917 69.8476 242.686 70.1106 242.404 70.3606C242.123 70.6106 241.777 70.8137 241.365 70.97C240.959 71.1262 240.477 71.2043 239.92 71.2043ZM250.225 69.4075V59.0481H251.678V71.0481H250.35L250.225 69.4075ZM244.537 66.9153V66.7512C244.537 66.1054 244.615 65.5194 244.771 64.9934C244.933 64.4622 245.16 64.0064 245.451 63.6262C245.748 63.246 246.1 62.9543 246.506 62.7512C246.917 62.5429 247.376 62.4387 247.881 62.4387C248.412 62.4387 248.876 62.5325 249.271 62.72C249.673 62.9023 250.011 63.1705 250.287 63.5247C250.568 63.8736 250.79 64.2955 250.951 64.7903C251.113 65.2851 251.225 65.845 251.287 66.47V67.1887C251.23 67.8085 251.118 68.3658 250.951 68.8606C250.79 69.3554 250.568 69.7773 250.287 70.1262C250.011 70.4752 249.673 70.7434 249.271 70.9309C248.87 71.1132 248.402 71.2043 247.865 71.2043C247.37 71.2043 246.917 71.0976 246.506 70.884C246.1 70.6705 245.748 70.371 245.451 69.9856C245.16 69.6002 244.933 69.1471 244.771 68.6262C244.615 68.1002 244.537 67.5299 244.537 66.9153ZM245.99 66.7512V66.9153C245.99 67.3372 246.032 67.733 246.115 68.1028C246.204 68.4726 246.339 68.7981 246.521 69.0793C246.704 69.3606 246.936 69.5819 247.217 69.7434C247.498 69.8997 247.834 69.9778 248.225 69.9778C248.704 69.9778 249.097 69.8762 249.404 69.6731C249.717 69.47 249.967 69.2017 250.154 68.8684C250.342 68.5351 250.488 68.1731 250.592 67.7825V65.8997C250.529 65.6132 250.438 65.3372 250.318 65.0715C250.204 64.8007 250.053 64.5611 249.865 64.3528C249.683 64.1392 249.456 63.97 249.186 63.845C248.92 63.72 248.605 63.6575 248.24 63.6575C247.844 63.6575 247.503 63.7408 247.217 63.9075C246.936 64.0689 246.704 64.2929 246.521 64.5793C246.339 64.8606 246.204 65.1887 246.115 65.5637C246.032 65.9335 245.99 66.3293 245.99 66.7512Z" fill="#231F20"/>
<path d="M74.0528 42.5041L67.6528 44.4881C67.0128 44.0614 66.3728 43.4641 65.7328 42.6961C65.0928 41.9281 64.7728 40.8614 64.7728 39.4961C64.7728 36.9361 66.3301 35.1441 69.4448 34.1201L76.6128 31.6881H78.9808C80.8155 31.6881 82.2661 32.2214 83.3328 33.2881C84.3995 34.3548 84.9328 35.8054 84.9328 37.6401V70.9841C84.4635 71.0694 83.7595 71.1761 82.8208 71.3041C81.9248 71.4748 81.0075 71.5601 80.0688 71.5601C79.1301 71.5601 78.2768 71.4961 77.5088 71.3681C76.7835 71.2401 76.1648 70.9841 75.6528 70.6001C75.1408 70.2161 74.7355 69.7041 74.4368 69.0641C74.1808 68.3814 74.0528 67.5068 74.0528 66.4401V42.5041ZM99.1778 42.5041L92.7778 44.4881C92.1378 44.0614 91.4978 43.4641 90.8578 42.6961C90.2178 41.9281 89.8978 40.8614 89.8978 39.4961C89.8978 36.9361 91.4551 35.1441 94.5698 34.1201L101.738 31.6881H104.106C105.94 31.6881 107.391 32.2214 108.458 33.2881C109.524 34.3548 110.058 35.8054 110.058 37.6401V70.9841C109.588 71.0694 108.884 71.1761 107.946 71.3041C107.05 71.4748 106.132 71.5601 105.194 71.5601C104.255 71.5601 103.402 71.4961 102.634 71.3681C101.908 71.2401 101.29 70.9841 100.778 70.6001C100.266 70.2161 99.8605 69.7041 99.5618 69.0641C99.3058 68.3814 99.1778 67.5068 99.1778 66.4401V42.5041Z" fill="#231F20"/>
<rect x="1.4248" y="0.0820312" width="798.575" height="96" rx="12" fill="url(#paint0_linear_981_10380)"/>
<mask id="mask0_981_10380" style="mask-type:alpha" maskUnits="userSpaceOnUse" x="1" y="0" width="799" height="97">
<rect x="1.4248" y="0.0820312" width="798.575" height="96" rx="12" fill="url(#paint1_linear_981_10380)"/>
</mask>
<g mask="url(#mask0_981_10380)">
<g filter="url(#filter0_i_981_10380)">
<path d="M842.619 81.8229C741.726 110.434 613.106 83.7216 555.338 22.1595C497.57 -39.4026 811.828 15.2191 633.421 -141.113C734.313 -169.724 862.933 -143.012 920.701 -81.4499C978.47 -19.8878 943.511 53.2119 842.619 81.8229Z" fill="#F58220"/>
</g>
</g>
<defs>
<filter id="filter0_i_981_10380" x="548.139" y="-156.344" width="400.425" height="249.646" filterUnits="userSpaceOnUse" color-interpolation-filters="sRGB">
<feFlood flood-opacity="0" result="BackgroundImageFix"/>
<feBlend mode="normal" in="SourceGraphic" in2="BackgroundImageFix" result="shape"/>
<feColorMatrix in="SourceAlpha" type="matrix" values="0 0 0 0 0 0 0 0 0 0 0 0 0 0 0 0 0 0 127 0" result="hardAlpha"/>
<feOffset dy="-3.75104"/>
<feGaussianBlur stdDeviation="4.6888"/>
<feComposite in2="hardAlpha" operator="arithmetic" k2="-1" k3="1"/>
<feColorMatrix type="matrix" values="0 0 0 0 1 0 0 0 0 1 0 0 0 0 1 0 0 0 0.25 0"/>
<feBlend mode="normal" in2="shape" result="effect1_innerShadow_981_10380"/>
</filter>
<linearGradient id="paint0_linear_981_10380" x1="1.4248" y1="48.0589" x2="803.905" y2="35.1565" gradientUnits="userSpaceOnUse">
<stop stop-color="#B61F2D"/>
<stop offset="0.333425" stop-color="#AF1826"/>
<stop offset="0.567806" stop-color="#DC1F24"/>
<stop offset="1" stop-color="#FF8351"/>
</linearGradient>
<linearGradient id="paint1_linear_981_10380" x1="800" y1="4.519" x2="770.241" y2="211.932" gradientUnits="userSpaceOnUse">
<stop stop-color="#5B5B5B"/>
<stop offset="1" stop-color="#232323"/>
</linearGradient>
</defs>
</svg>
