<svg xmlns="http://www.w3.org/2000/svg" fill="none" viewBox="0 37.12 303.02 74.02"><path d="M41.84 111.123c9.237 0 18.094-3.898 24.625-10.837 6.531-6.94 10.2-16.35 10.2-26.164s-3.669-19.224-10.2-26.163c-6.53-6.94-15.388-10.838-24.624-10.838v74.002" fill="#FFCB05"/><path d="M187.666 111.123c9.236 0 18.094-3.898 24.624-10.837 6.531-6.94 10.2-16.35 10.2-26.164s-3.669-19.224-10.2-26.163c-6.53-6.94-15.388-10.838-24.624-10.838z" fill="#F58220"/><path d="M262.75 37.117c0 4.859-.929 9.67-2.734 14.16a37.1 37.1 0 0 1-7.785 12.003 35.8 35.8 0 0 1-11.651 8.021 35 35 0 0 1-13.743 2.817V37.117z" fill="#B61F2D"/><path d="M226.689 74.125a34.9 34.9 0 0 1 13.715 2.81 35.8 35.8 0 0 1 11.63 8.013 37.1 37.1 0 0 1 7.774 11.998 38 38 0 0 1 2.734 14.155l-35.837.016zm37.151-37.003h26.377c7.069 0 12.8 5.731 12.8 12.8v24.201H276.64c-7.069 0-12.8-5.73-12.8-12.8z" fill="#FFCB05"/><path d="M0 37.122h26.377c7.07 0 12.8 5.731 12.8 12.8v24.201H12.8c-7.07 0-12.8-5.73-12.8-12.8z" fill="#F58220"/><path d="M263.84 111.138v-24.2c0-7.07 5.731-12.8 12.8-12.8h26.377v24.2c0 7.069-5.731 12.8-12.8 12.8zm-263.84 0v-24.2c0-7.07 5.73-12.8 12.8-12.8h26.377v24.2c0 7.069-5.73 12.8-12.8 12.8z" fill="#B61F2D"/><path d="M187.666 111.123c-9.236 0-18.094-3.898-24.625-10.837-6.53-6.94-10.199-16.35-10.199-26.164s3.669-19.224 10.199-26.163c6.531-6.94 15.389-10.838 24.625-10.838z" fill="#EE1D23"/><path d="M78.84 111.123c4.574 0 9.102-.957 13.327-2.817 4.225-1.859 8.065-4.584 11.298-8.02s5.799-7.515 7.549-12.004a39 39 0 0 0 2.651-14.16H78.841z" fill="#F58220"/><path d="M113.643 74.205a32.8 32.8 0 0 1-13.281-2.773c-4.214-1.845-8.046-4.558-11.277-7.982-3.232-3.425-5.8-7.495-7.557-11.977a39.1 39.1 0 0 1-2.686-14.148l34.68-.113z" fill="#EE1D23"/><path d="M113.664 74.094c0-4.573.957-9.101 2.816-13.326 1.86-4.226 4.585-8.065 8.021-11.298s7.515-5.8 12.004-7.55 9.3-2.65 14.159-2.65v34.824z" fill="#F58220"/><path d="M113.654 74.124c4.573 0 9.102.957 13.327 2.816 4.225 1.86 8.064 4.585 11.298 8.021s5.799 7.515 7.549 12.004a39 39 0 0 1 2.651 14.16h-34.825z" fill="#EE1D23"/></svg>