<svg xmlns="http://www.w3.org/2000/svg" fill="none" viewBox="0 37.09 303.01 74.02"><g opacity="0.8"><path d="M41.8378 111.092C51.0738 111.092 59.9315 107.193 66.4623 100.254C72.9931 93.3153 76.6621 83.9041 76.6621 74.0909C76.6621 64.2776 72.9931 54.8664 66.4623 47.9274C59.9315 40.9884 51.0738 37.0901 41.8378 37.0901L41.8378 74.0908L41.8378 111.092Z" fill="#FFCB05"></path><path d="M187.659 111.092C196.895 111.092 205.753 107.193 212.284 100.254C218.814 93.3153 222.483 83.9041 222.483 74.0909C222.483 64.2776 218.814 54.8664 212.284 47.9274C205.753 40.9884 196.895 37.0901 187.659 37.0901L187.659 74.0908V111.092Z" fill="#F58220"></path><path d="M262.746 37.0893C262.746 41.9483 261.817 46.7598 260.012 51.2489C258.208 55.738 255.562 59.817 252.227 63.2528C248.893 66.6887 244.934 69.4141 240.577 71.2736C236.219 73.133 231.55 74.0901 226.833 74.0901V37.0893H262.746Z" fill="#B61F2D"></path><path d="M226.686 74.1051C231.392 74.1029 236.052 75.0577 240.401 76.9148C244.75 78.7719 248.702 81.495 252.031 84.9286C255.36 88.3622 258.002 92.4391 259.805 96.9265C261.608 101.414 262.537 106.224 262.539 111.082L226.702 111.098L226.686 74.1051Z" fill="#FFCB05"></path><path d="M263.837 37.0911H290.214C297.283 37.0911 303.014 42.8218 303.014 49.8911V74.0918H276.637C269.568 74.0918 263.837 68.3611 263.837 61.2918V37.0911Z" fill="#FFCB05"></path><path d="M0 37.0911H26.3773C33.4465 37.0911 39.1773 42.8218 39.1773 49.8911V74.0918H12.8C5.73076 74.0918 0 68.3611 0 61.2918V37.0911Z" fill="#F58220"></path><path d="M263.837 111.111V86.9098C263.837 79.8406 269.568 74.1098 276.637 74.1098H303.014V98.3106C303.014 105.38 297.283 111.111 290.214 111.111H263.837Z" fill="#B61F2D"></path><path d="M0 111.111L0 86.9098C0 79.8406 5.73076 74.1098 12.8 74.1098H39.1773V98.3106C39.1773 105.38 33.4465 111.111 26.3773 111.111H0Z" fill="#B61F2D"></path><path d="M187.659 111.092C178.423 111.092 169.565 107.193 163.035 100.254C156.504 93.3153 152.835 83.9041 152.835 74.0909C152.835 64.2776 156.504 54.8664 163.035 47.9274C169.565 40.9884 178.423 37.0901 187.659 37.0901L187.659 74.0908V111.092Z" fill="#EE1D23"></path><path d="M78.8378 111.092C83.411 111.092 87.9394 110.135 92.1645 108.275C96.3896 106.416 100.229 103.69 103.462 100.254C106.696 96.8185 109.261 92.7396 111.011 88.2504C112.761 83.7613 113.662 78.9499 113.662 74.0908H78.8378L78.8378 111.092Z" fill="#F58220"></path><path d="M113.64 74.1772C109.086 74.192 104.573 73.2499 100.359 71.4045C96.1454 69.5591 92.3133 66.8467 89.0818 63.4221C85.8502 59.9975 83.2824 55.9278 81.525 51.4453C79.7675 46.9628 78.8548 42.1554 78.839 37.2975L113.52 37.1847L113.64 74.1772Z" fill="#EE1D23"></path><path d="M113.661 74.0628C113.661 69.4896 114.618 64.9612 116.477 60.7361C118.337 56.511 121.062 52.6721 124.498 49.4383C127.934 46.2046 132.013 43.6394 136.502 41.8894C140.991 40.1393 145.802 39.2385 150.661 39.2385V74.0628H113.661Z" fill="#F58220"></path><path d="M113.652 74.1042C118.225 74.1042 122.754 75.0612 126.979 76.9207C131.204 78.7802 135.043 81.5056 138.277 84.9415C141.511 88.3773 144.076 92.4562 145.826 96.9454C147.576 101.435 148.477 106.246 148.477 111.105H113.652V74.1042Z" fill="#EE1D23"></path></g></svg>