<svg width="85" height="90" viewBox="0 0 85 90" fill="none" xmlns="http://www.w3.org/2000/svg">
  <rect width="85" height="90"/>
  <path d="M0 55.5853L68.8294 90L83.0769 68.7291L23.6789 34.4147L0 55.5853Z" fill="url(#paint0_linear_981_2751)"/>
  <path opacity="0.75" d="M36.9231 42.0402H15.1505L0 55.5853L13.1438 62.2074H71.7391L36.9231 42.0402Z" fill="url(#paint1_linear_981_2751)"/>
  <path d="M69.0301 90H0V83.8796C0 75.5519 6.82274 68.7291 15.1505 68.7291H83.0769V76.0535C83.0769 83.7793 76.7559 90 69.0301 90Z" fill="url(#paint2_linear_981_2751)"/>
  <path d="M0 21.2709L41.8395 55.5853L65.5184 34.4147L15.3512 0L0 21.2709Z" fill="url(#paint3_linear_981_2751)"/>
  <path opacity="0.75" d="M15.3512 0L0 21.2709L8.02676 27.7926H55.9866L15.3512 0Z" fill="url(#paint4_linear_981_2751)"/>
  <path d="M69.0301 21.2709H0V15.1505C0 6.82274 6.82274 0 15.1505 0H83.0769V7.32442C83.0769 15.0502 76.7559 21.2709 69.0301 21.2709Z" fill="url(#paint5_linear_981_2751)"/>
  <path d="M44.5485 55.5853H0V55.2843C0 43.7458 9.3311 34.3144 20.9699 34.3144H65.5184V34.6154C65.5184 46.2542 56.087 55.5853 44.5485 55.5853Z" fill="url(#paint6_linear_981_2751)"/>
  <path opacity="0.75" d="M2.00342 8.62876H84.077V0H14.7459C8.9265 0 4.01011 3.61204 2.00342 8.62876Z" fill="url(#paint7_linear_981_2751)"/>
  <path opacity="0.75" d="M1.00342 77.3579H83.077V68.7291H13.7459C7.9265 68.7291 3.01011 72.3412 1.00342 77.3579Z" fill="url(#paint8_linear_981_2751)"/>
  <path opacity="0.75" d="M18.9633 34.4147C14.7492 34.4147 10.9365 35.8194 7.82617 38.1271H65.5185C65.5185 37.7258 65.6188 37.2241 65.6188 36.8228V34.5151H18.9633V34.4147Z" fill="url(#paint9_linear_981_2751)"/>
  <defs>
    <linearGradient id="paint0_linear_981_2751" x1="22.199" y1="48.9771" x2="65.4948" y2="96.7153" gradientUnits="userSpaceOnUse">
      <stop stop-color="#B61F2D"/>
      <stop offset="0.169574" stop-color="#B61F2D"/>
      <stop offset="1" stop-color="#8C0004"/>
    </linearGradient>
    <linearGradient id="paint1_linear_981_2751" x1="12.2131" y1="44.8192" x2="30.0915" y2="80.2754" gradientUnits="userSpaceOnUse">
      <stop stop-color="#220003"/>
      <stop offset="1" stop-color="#8B0E19" stop-opacity="0"/>
    </linearGradient>
    <linearGradient id="paint2_linear_981_2751" x1="-1.20644e-08" y1="79.3595" x2="83.5" y2="78.7291" gradientUnits="userSpaceOnUse">
      <stop stop-color="#B61F2D"/>
      <stop offset="0.333425" stop-color="#AF1826"/>
      <stop offset="0.567806" stop-color="#DC1F24"/>
      <stop offset="1" stop-color="#FF8351"/>
    </linearGradient>
    <linearGradient id="paint3_linear_981_2751" x1="17.5072" y1="14.5623" x2="60.5883" y2="52.0242" gradientUnits="userSpaceOnUse">
      <stop stop-color="#B61F2D"/>
      <stop offset="0.169574" stop-color="#B61F2D"/>
      <stop offset="1" stop-color="#8C0004"/>
    </linearGradient>
    <linearGradient id="paint4_linear_981_2751" x1="9.53137" y1="3.82987" x2="39.9691" y2="38.0138" gradientUnits="userSpaceOnUse">
      <stop stop-color="#220003"/>
      <stop offset="1" stop-color="#8B0E19" stop-opacity="0"/>
    </linearGradient>
    <linearGradient id="paint5_linear_981_2751" x1="-1.20644e-08" y1="10.6303" x2="83.5" y2="10" gradientUnits="userSpaceOnUse">
      <stop stop-color="#B61F2D"/>
      <stop offset="0.333425" stop-color="#AF1826"/>
      <stop offset="0.567806" stop-color="#DC1F24"/>
      <stop offset="1" stop-color="#FF8351"/>
    </linearGradient>
    <linearGradient id="paint6_linear_981_2751" x1="0" y1="45.0021" x2="65.4982" y2="45.0021" gradientUnits="userSpaceOnUse">
      <stop stop-color="#BA2C2C"/>
      <stop offset="1" stop-color="#FF6E64"/>
    </linearGradient>
    <linearGradient id="paint7_linear_981_2751" x1="25.2464" y1="-15.6529" x2="60.9624" y2="24.4589" gradientUnits="userSpaceOnUse">
      <stop stop-color="#CC1F2F"/>
      <stop offset="1" stop-color="#EE1D23" stop-opacity="0.14"/>
    </linearGradient>
    <linearGradient id="paint8_linear_981_2751" x1="24.2464" y1="53.0763" x2="59.9623" y2="93.1881" gradientUnits="userSpaceOnUse">
      <stop stop-color="#CC1F2F"/>
      <stop offset="1" stop-color="#EE1D23" stop-opacity="0.14"/>
    </linearGradient>
    <linearGradient id="paint9_linear_981_2751" x1="24.2242" y1="22.2685" x2="48.6724" y2="49.7257" gradientUnits="userSpaceOnUse">
      <stop stop-color="#BA2C2C" stop-opacity="0"/>
      <stop offset="1" stop-color="#FF9494"/>
    </linearGradient>
  </defs>
</svg>
